{"title":"Real.Humans.S01.Web-dl.rip.Swedish.Xvid-BRAZIL","uid":9463502,"size":5827585135,"categoryP":"video","categoryS":"tv_shows","magnet":"?xt=urn:btih:f0f9501e6abc2e9bb88487c531c21f7b9b1301bb&amp;dn=Real.Humans.S01.Web-dl.rip.Swedish.Xvid-BRAZIL&amp;tr=udp%3A%2F%2Ftracker.openbittorrent.com%3A80&amp;tr=udp%3A%2F%2Fopen.demonii.com%3A1337&amp;tr=udp%3A%2F%2Ftracker.coppersurfer.tk%3A6969&amp;tr=udp%3A%2F%2Fexodus.desync.com%3A6969","seeders":0,"leechers":1,"uploader":null,"files":20,"time":1389397258,"description":"Format                                   : AVI\nFormat/Info                              : Audio Video Interleave\nFile size                                : 550 MiB\nDuration                                 : 58mn 27s\nOverall bit rate                         : 1 315 Kbps\nWriting application                      : VirtualDubMod 1.5.4.1 (build 2178/release)\nWriting library                          : VirtualDubMod build 2178/release\n\nVideo\nID                                       : 0\nFormat                                   : MPEG-4 Visual\nFormat profile                           : Advanced Simple@L5\nFormat settings, BVOP                    : 1\nFormat settings, QPel                    : No\nFormat settings, GMC                     : No warppoints\nFormat settings, Matrix                  : Custom\nCodec ID                                 : XVID\nCodec ID/Hint                            : XviD\nDuration                                 : 58mn 27s\nBit rate                                 : 1 180 Kbps\nWidth                                    : 640 pixels\nHeight                                   : 368 pixels\nDisplay aspect ratio                     : 1.739\nFrame rate                               : 25.000 fps\nColor space                              : YUV\nChroma subsampling                       : 4:2:0\nBit depth                                : 8 bits\nScan type                                : Progressive\nCompression mode                         : Lossy\nBits/(Pixel*Frame)                       : 0.200\nStream size                              : 493 MiB (90%)\nWriting library                          : XviD 1.2.1 (UTC 2008-12-04)\n\nAudio\nID                                       : 1\nFormat                                   : MPEG Audio\nFormat version                           : Version 1\nFormat profile                           : Layer 3\nCodec ID                                 : 55\nCodec ID/Hint                            : MP3\nDuration                                 : 58mn 27s\nBit rate mode                            : Constant\nBit rate                                 : 128 Kbps\nChannel count                            : 2 channels\nSampling rate                            : 44.1 KHz\nCompression mode                         : Lossy\nStream size                              : 53.5 MiB (10%)\nAlignment                                : Split accross interleaves\nInterleave, duration                     : 80 ms (2.00 video frames)\nInterleave, preload duration             : 500 ms\n","torrent":{"xt":"urn:btih:f0f9501e6abc2e9bb88487c531c21f7b9b1301bb","amp;dn":"Real.Humans.S01.Web-dl.rip.Swedish.Xvid-BRAZIL","amp;tr":["udp%3A%2F%2Ftracker.openbittorrent.com%3A80","udp%3A%2F%2Fopen.demonii.com%3A1337","udp%3A%2F%2Ftracker.coppersurfer.tk%3A6969","udp%3A%2F%2Fexodus.desync.com%3A6969"],"infoHash":"f0f9501e6abc2e9bb88487c531c21f7b9b1301bb","infoHashBuffer":{"type":"Buffer","data":[240,249,80,30,106,188,46,155,184,132,135,197,49,194,31,123,155,19,1,187]},"announce":[],"urlList":[]}}